<?xml version="1.0" standalone="no"?>
<!DOCTYPE svg PUBLIC "-//W3C//DTD SVG 20010904//EN"
 "http://www.w3.org/TR/2001/REC-SVG-20010904/DTD/svg10.dtd">
<svg version="1.0" xmlns="http://www.w3.org/2000/svg"
 width="805.000000pt" height="598.000000pt" viewBox="0 0 805.000000 598.000000"
 preserveAspectRatio="xMidYMid meet">

<g transform="translate(0.000000,598.000000) scale(0.100000,-0.100000)"
fill="#000000" stroke="none">
<path d="M1530 5961 c-129 -41 -232 -145 -286 -287 -41 -109 -124 -422 -149
-564 l-6 -36 148 13 c179 15 532 17 703 4 68 -6 126 -8 129 -5 6 6 -18 323
-34 445 -21 163 -87 281 -207 370 -112 83 -183 97 -298 60z"/>
<path d="M6327 5966 c-63 -23 -180 -119 -222 -182 -76 -114 -100 -234 -121
-587 l-7 -119 54 6 c208 21 551 23 782 3 115 -10 147 -10 147 0 0 49 -105 450
-149 573 -58 157 -163 264 -300 304 -66 19 -133 20 -184 2z"/>
<path d="M1475 5029 c-100 -13 -234 -53 -314 -94 -68 -34 -70 -36 -73 -76 -3
-40 -5 -43 -43 -53 -36 -10 -43 -18 -80 -91 -22 -44 -78 -136 -124 -205 -92
-140 -231 -410 -279 -543 -18 -48 -55 -186 -83 -305 -28 -119 -64 -260 -80
-312 -133 -435 -204 -739 -318 -1365 -53 -291 -59 -352 -73 -738 -11 -304 -11
-337 6 -435 34 -203 110 -395 208 -525 148 -199 488 -329 708 -273 212 55 462
245 605 460 125 190 325 647 495 1131 23 66 49 128 59 139 18 20 83 56 103 56
7 0 38 -20 68 -45 209 -172 514 -219 766 -119 71 29 197 107 228 142 18 21 27
22 203 22 115 0 183 -4 183 -10 0 -6 135 -10 385 -10 250 0 385 4 385 10 0 6
68 10 183 10 176 0 185 -1 203 -22 31 -35 157 -113 228 -142 252 -100 557 -53
766 119 30 25 61 45 68 45 20 0 85 -36 103 -56 10 -11 36 -73 59 -139 170
-484 370 -941 495 -1131 143 -215 393 -405 605 -460 169 -43 413 22 597 160
146 110 261 334 314 611 20 101 21 130 15 360 -13 464 -22 549 -117 1050 -94
495 -165 789 -283 1170 -19 61 -54 198 -79 305 -52 224 -87 329 -163 489 -68
144 -123 241 -235 412 -49 74 -89 141 -89 147 0 30 -41 78 -77 88 -35 10 -38
14 -41 53 -3 40 -5 42 -72 76 -237 119 -609 136 -867 38 -36 -13 -44 -21 -49
-49 -3 -19 -4 -47 -2 -63 4 -28 1 -30 -40 -41 -24 -6 -62 -25 -84 -43 l-40
-32 -221 -3 c-127 -2 -227 -8 -234 -13 -8 -7 -18 -4 -32 10 l-21 21 -1275 0
c-1262 0 -1275 0 -1295 -20 -21 -21 -40 -26 -40 -11 0 6 -92 11 -224 13 l-224
3 -40 32 c-22 18 -53 35 -68 38 -16 4 -36 9 -44 11 -11 3 -15 19 -15 63 0 33
-3 62 -6 65 -13 14 -128 49 -199 62 -100 18 -308 25 -395 13z m5134 -884 l80
-140 -90 -3 c-49 -1 -128 -1 -174 0 l-84 3 86 148 c47 82 89 145 93 140 4 -4
44 -71 89 -148z m546 -432 c37 -10 87 -55 106 -97 76 -168 -108 -334 -267
-241 -61 36 -89 86 -89 161 0 95 54 162 150 184 28 7 53 5 100 -7z m-1075
-178 l0 -145 -140 0 -140 0 0 145 0 145 140 0 140 0 0 -145z m375 -495 l59
-60 62 61 c39 38 67 59 74 54 8 -5 -9 -28 -51 -71 l-63 -64 63 -64 c42 -43 59
-66 51 -71 -7 -5 -35 16 -74 54 l-61 61 -62 -61 c-38 -39 -65 -59 -73 -54 -8
5 8 28 51 71 l63 64 -62 63 c-54 55 -67 77 -43 77 4 0 33 -27 66 -60z m-2365
-608 c24 -29 25 -55 5 -72 -25 -21 -44 -4 -48 42 -3 39 -4 38 -5 -13 l-2 -56
48 4 c32 3 53 0 67 -11 19 -14 18 -16 -28 -36 -67 -30 -110 -36 -128 -17 -9 8
-26 13 -40 10 -28 -5 -79 12 -79 26 0 6 25 18 55 27 l55 18 0 62 0 62 40 -10
c22 -6 49 -22 60 -36z"/>
<path d="M6452 4142 l-62 -107 65 -3 c36 -2 92 -2 125 0 l59 3 -60 105 c-34
58 -62 106 -63 107 -1 1 -30 -46 -64 -105z"/>
<path d="M7025 3681 c-34 -15 -75 -62 -86 -101 -41 -135 107 -248 232 -178 43
24 79 85 79 133 0 39 -35 106 -67 130 -30 21 -124 31 -158 16z"/>
<path d="M5830 3535 l0 -115 110 0 110 0 0 115 0 115 -110 0 -110 0 0 -115z"/>
<path d="M3955 2315 l-30 -14 33 2 c19 1 32 7 32 14 0 15 2 16 -35 -2z"/>
<path d="M4060 2308 c-14 -6 -20 -12 -14 -15 7 -2 27 3 45 11 24 10 28 14 14
15 -11 0 -31 -5 -45 -11z"/>
</g>
</svg>
