<?xml version="1.0" standalone="no"?>
<!DOCTYPE svg PUBLIC "-//W3C//DTD SVG 20010904//EN"
 "http://www.w3.org/TR/2001/REC-SVG-20010904/DTD/svg10.dtd">
<svg version="1.0" xmlns="http://www.w3.org/2000/svg"
 width="224.000000pt" height="112.000000pt" viewBox="0 0 224.000000 112.000000"
 preserveAspectRatio="xMidYMid meet">

<g transform="translate(0.000000,112.000000) scale(0.100000,-0.100000)"
fill="#000000" stroke="none">
<path d="M187 1106 c-184 -66 -246 -288 -121 -434 101 -119 289 -126 399 -17
79 80 101 198 55 303 -54 125 -207 193 -333 148z m147 -177 c43 43 66 59 71
51 5 -8 -15 -35 -54 -73 l-61 -62 61 -61 c34 -34 57 -64 52 -67 -5 -3 -36 21
-68 53 l-59 60 -62 -61 c-39 -38 -67 -59 -74 -54 -8 5 9 28 51 71 l63 64 -62
63 c-34 35 -59 66 -55 70 4 4 35 -21 70 -55 l63 -62 64 63z"/>
<path d="M743 1104 c-180 -66 -235 -311 -101 -446 111 -110 301 -105 401 12
116 135 74 340 -87 422 -53 27 -156 33 -213 12z m175 -88 c31 -16 74 -61 91
-93 16 -32 13 -120 -6 -160 -35 -74 -140 -119 -218 -93 -85 28 -144 119 -131
202 9 57 47 113 93 137 45 24 132 27 171 7z"/>
<path d="M780 999 c-61 -25 -100 -85 -100 -155 0 -158 197 -212 294 -81 31 41
29 130 -2 175 -43 60 -127 87 -192 61z"/>
<path d="M1307 1096 c-85 -31 -150 -107 -169 -199 -38 -181 107 -341 293 -324
69 6 125 34 172 86 51 57 70 105 70 181 0 77 -17 122 -70 180 -72 81 -194 112
-296 76z m233 -256 l0 -140 -140 0 -140 0 0 140 0 140 140 0 140 0 0 -140z"/>
<path d="M1290 845 l0 -115 115 0 115 0 0 115 0 115 -115 0 -115 0 0 -115z"/>
<path d="M1882 1092 c-115 -41 -183 -136 -183 -254 0 -108 44 -187 134 -238
103 -59 222 -47 311 31 60 53 87 107 93 184 15 192 -175 341 -355 277z m176
-224 l81 -138 -170 0 c-94 0 -169 4 -167 8 18 45 164 280 169 275 4 -5 43 -70
87 -145z"/>
<path d="M1901 864 c-33 -58 -61 -108 -61 -110 0 -2 57 -4 126 -4 97 0 125 3
122 13 -5 21 -112 207 -119 207 -4 0 -34 -48 -68 -106z"/>
<path d="M777 446 c-50 -18 -85 -51 -108 -101 -77 -167 113 -325 273 -227 104
64 104 238 0 307 -47 31 -115 40 -165 21z m143 -38 c57 -39 75 -72 75 -137 0
-47 -5 -64 -27 -93 -37 -48 -89 -72 -146 -65 -51 6 -87 29 -120 78 -30 44 -28
129 6 176 45 63 149 83 212 41z"/>
<path d="M1883 313 l-81 -138 161 -3 c88 -1 162 -1 164 1 4 5 -133 245 -152
265 -10 11 -28 -13 -92 -125z m153 -11 l62 -107 -126 -3 c-68 -1 -126 -1 -129
1 -5 5 118 217 126 217 3 0 34 -49 67 -108z"/>
<path d="M136 403 c-3 -4 22 -35 56 -70 l62 -63 -62 -63 c-34 -35 -59 -66 -55
-70 4 -4 35 21 70 55 l63 62 64 -63 c43 -42 66 -59 71 -51 5 7 -15 34 -50 70
l-58 59 41 49 c23 27 48 55 57 62 8 7 12 17 9 22 -4 6 -34 -17 -68 -51 l-62
-61 -59 60 c-61 61 -66 65 -79 53z"/>
<path d="M1260 270 l0 -140 140 0 140 0 0 140 0 140 -140 0 -140 0 0 -140z
m260 5 l0 -115 -115 0 -115 0 0 115 0 115 115 0 115 0 0 -115z"/>
</g>
</svg>
